REM DIRINDEX 1\2,1\3,1\4,1\5
REM DIRNAME "folder01","folder02","folder03","folder04","folder05"
TITLE ""
FILE "1Q_t_1229-1238.mp3" MP3
  TRACK 01 AUDIO
    TITLE "0:"
    INDEX 01 00:00:00
  TRACK 02 AUDIO
    TITLE "3:cjc172_4657"
    INDEX 01 00:00:08
  TRACK 03 AUDIO
    TITLE "0:"
    INDEX 01 00:01:18
  TRACK 04 AUDIO
    TITLE "4:cjc172_4658"
    INDEX 01 00:01:25
  TRACK 05 AUDIO
    TITLE "0:"
    INDEX 01 00:04:65
  TRACK 06 AUDIO
    TITLE "5:cjc172_4659"
    INDEX 01 00:04:71
  TRACK 07 AUDIO
    TITLE "0:"
    INDEX 01 00:10:71
  TRACK 08 AUDIO
    TITLE "3:cjc172_4660"
    INDEX 01 00:11:41
  TRACK 09 AUDIO
    TITLE "0:"
    INDEX 01 00:12:55
  TRACK 10 AUDIO
    TITLE "4:cjc172_4661"
    INDEX 01 00:12:62
  TRACK 11 AUDIO
    TITLE "0:"
    INDEX 01 00:14:55
  TRACK 12 AUDIO
    TITLE "5:cjc172_4662"
    INDEX 01 00:14:61
  TRACK 13 AUDIO
    TITLE "0:"
    INDEX 01 00:21:48
  TRACK 14 AUDIO
    TITLE "3:cjc172_4663"
    INDEX 01 00:22:20
  TRACK 15 AUDIO
    TITLE "0:"
    INDEX 01 00:23:25
  TRACK 16 AUDIO
    TITLE "4:cjc172_4664"
    INDEX 01 00:23:35
  TRACK 17 AUDIO
    TITLE "0:"
    INDEX 01 00:24:44
  TRACK 18 AUDIO
    TITLE "5:cjc172_4665"
    INDEX 01 00:24:52
  TRACK 19 AUDIO
    TITLE "0:"
    INDEX 01 00:30:25
  TRACK 20 AUDIO
    TITLE "3:cjc172_4666"
    INDEX 01 00:30:70
  TRACK 21 AUDIO
    TITLE "0:"
    INDEX 01 00:32:22
  TRACK 22 AUDIO
    TITLE "4:cjc172_4667"
    INDEX 01 00:32:28
  TRACK 23 AUDIO
    TITLE "0:"
    INDEX 01 00:34:68
  TRACK 24 AUDIO
    TITLE "5:cjc172_4668"
    INDEX 01 00:35:01
  TRACK 25 AUDIO
    TITLE "0:"
    INDEX 01 00:41:09
  TRACK 26 AUDIO
    TITLE "3:cjc172_4669"
    INDEX 01 00:41:54
  TRACK 27 AUDIO
    TITLE "0:"
    INDEX 01 00:43:20
  TRACK 28 AUDIO
    TITLE "4:cjc172_4670"
    INDEX 01 00:43:28
  TRACK 29 AUDIO
    TITLE "0:"
    INDEX 01 00:45:48
  TRACK 30 AUDIO
    TITLE "5:cjc172_4671"
    INDEX 01 00:45:56
  TRACK 31 AUDIO
    TITLE "0:"
    INDEX 01 00:50:49
  TRACK 32 AUDIO
    TITLE "3:cjc172_4672"
    INDEX 01 00:51:21
  TRACK 33 AUDIO
    TITLE "0:"
    INDEX 01 00:52:38
  TRACK 34 AUDIO
    TITLE "4:cjc172_4673"
    INDEX 01 00:52:48
  TRACK 35 AUDIO
    TITLE "0:"
    INDEX 01 00:53:42
  TRACK 36 AUDIO
    TITLE "5:cjc172_4674"
    INDEX 01 00:53:48
  TRACK 37 AUDIO
    TITLE "0:"
    INDEX 01 00:58:33
  TRACK 38 AUDIO
    TITLE "3:cjc172_4675"
    INDEX 01 00:59:09
  TRACK 39 AUDIO
    TITLE "0:"
    INDEX 01 01:00:34
  TRACK 40 AUDIO
    TITLE "4:cjc172_4676"
    INDEX 01 01:00:42
  TRACK 41 AUDIO
    TITLE "0:"
    INDEX 01 01:02:47
  TRACK 42 AUDIO
    TITLE "5:cjc172_4677"
    INDEX 01 01:02:54
  TRACK 43 AUDIO
    TITLE "0:"
    INDEX 01 01:07:38
  TRACK 44 AUDIO
    TITLE "3:cjc172_4678"
    INDEX 01 01:08:06
  TRACK 45 AUDIO
    TITLE "0:"
    INDEX 01 01:09:21
  TRACK 46 AUDIO
    TITLE "4:cjc172_4679"
    INDEX 01 01:09:29
  TRACK 47 AUDIO
    TITLE "0:"
    INDEX 01 01:11:32
  TRACK 48 AUDIO
    TITLE "5:cjc172_4680"
    INDEX 01 01:11:38
  TRACK 49 AUDIO
    TITLE "0:"
    INDEX 01 01:19:57
  TRACK 50 AUDIO
    TITLE "3:cjc172_4681"
    INDEX 01 01:20:25
  TRACK 51 AUDIO
    TITLE "0:"
    INDEX 01 01:21:22
  TRACK 52 AUDIO
    TITLE "4:cjc172_4682"
    INDEX 01 01:21:30
  TRACK 53 AUDIO
    TITLE "0:"
    INDEX 01 01:25:03
  TRACK 54 AUDIO
    TITLE "5:cjc172_4683"
    INDEX 01 01:25:09
  TRACK 55 AUDIO
    TITLE "0:"
    INDEX 01 01:31:39
  TRACK 56 AUDIO
    TITLE "3:cjc172_4684"
    INDEX 01 01:32:09
  TRACK 57 AUDIO
    TITLE "0:"
    INDEX 01 01:33:20
  TRACK 58 AUDIO
    TITLE "4:cjc172_4685"
    INDEX 01 01:33:28
  TRACK 59 AUDIO
    TITLE "0:"
    INDEX 01 01:35:15
  TRACK 60 AUDIO
    TITLE "5:cjc172_4686"
    INDEX 01 01:35:21
  TRACK 61 AUDIO
    TITLE "0:"
    INDEX 01 01:41:51
